# xmcd
#
# Track frame offsets: 
#        150
#        15232
#        35392
#        47276
#        64754
#        82560
#        99099
#        113749
#        129073
#        139660
#        157047
#        175201
#
# Disc length: 2569 seconds
#
# Revision: 0
# Processed by: cddbd v1.4PL0 Copyright (c) Steve Scherf et al.
# Submitted via: ExactAudioCopy v0.90a11
#
DISCID=7a0a070c
DTITLE=Highway 101 - Big Sky
DYEAR=1900
DGENRE=
TTITLE0=Rhythm Of Livin'
TTITLE1=Bigger Than The Both Of Us
TTITLE2=Easier Done Than Said
TTITLE3=I Wonder Where The Love Goes
TTITLE4=True Hard Love
TTITLE5=Big Sky
TTITLE6=Ain't That Just Like Love
TTITLE7=Only Thinking Of You
TTITLE8=There Goes My Love
TTITLE9=Thicker Than Blood
TTITLE10=Long List Of Obvious Reasons
TTITLE11=Best Of All Possible Worlds
EXTD=
EXTT0=
EXTT1=
EXTT2=
EXTT3=
EXTT4=
EXTT5=
EXTT6=
EXTT7=
EXTT8=
EXTT9=
EXTT10=
EXTT11=
PLAYORDER=
